# Blender v2.79 (sub 0) OBJ File: ''
# www.blender.org
mtllib cube2.mtl
o Cube
v 0.594839 0.238417 -1.609137
v 1.472630 -0.887611 -0.208586
v -0.300115 -1.685808 0.260733
v -1.177904 -0.559780 -1.139819
v 0.300115 1.685808 -0.260732
v 1.177904 0.559780 1.139819
v -0.594840 -0.238417 1.609137
v -1.472630 0.887611 0.208586
vn 0.1474 -0.7237 -0.6742
vn -0.1474 0.7237 0.6742
vn 0.8864 0.3991 -0.2347
vn 0.4389 -0.5630 0.7003
vn -0.8864 -0.3991 0.2347
vn -0.4389 0.5630 -0.7003
usemtl Material
s off
f 1/0/1 2/0/1 3/0/1 4/0/1